<?xml version="1.0" encoding="UTF-8" standalone="no"?>
<svg
   width="492.1655"
   zoomAndPan="magnify"
   viewBox="0 0 369.12412 343.44546"
   height="457.92728"
   preserveAspectRatio="xMidYMid"
   version="1.0"
   id="svg8"
   xmlns="http://www.w3.org/2000/svg"
   xmlns:svg="http://www.w3.org/2000/svg">
  <defs
     id="defs12" />
  <path
     fill="#9552f2"
     d="m 178.91758,1.0494216 c -7.98047,1.02344 -19.21094,7.21094 -26.74219,14.7382804 -8.22266,8.20703 -20.04687,26.44141 -25.63672,39.51953 -2.48047,5.79688 -4.67578,10.71094 -4.88281,10.91797 -0.20313,0.20312 -4.13672,-1.21094 -8.73828,-3.14453 -10.27735,-4.31641 -28.515632,-7.97266 -39.648442,-7.94531 -29.22266,0.0703 -45.98437,12.78906 -47.75391,36.23828 -0.8164,10.761718 0.92188,19.769528 6.28516,32.582028 3.75781,8.97656 6.41016,13.46875 16.78906,28.42969 1.71094,2.46484 3.10938,4.89062 3.10938,5.38671 0,0.5 -4.01953,3.34375 -8.9336,6.32422 -18.83203,11.42578 -32.59765,25.20313 -39.1406197,39.17578 -2.81249996,6.00782 -3.21874996,8.2461 -3.21874996,17.82032 0,9.78125 0.36328,11.6875 3.39062996,17.86718 6.0078097,12.25391 17.0273397,21.28125 32.2656197,26.4336 7.36328,2.48828 26.64453,5.21484 37.07422,5.24219 l 8.18359,0.0195 0.77735,13.54297 c 1.35937,23.79687 6.55859,39.40234 16.14453,48.46484 7.894532,7.46875 14.914062,9.82812 27.582032,9.26953 7.58984,-0.33203 10.91015,-1.10937 16.93359,-3.95312 13.83594,-6.54297 32.01563,-24.625 29.21875,-29.06641 -0.6289,-0.99609 -1.6289,-1.96875 -2.21484,-2.16016 -0.58985,-0.1875 -4.95703,3.33594 -9.70703,7.82813 -9.79297,9.26953 -21.95313,16.51562 -30.8086,18.36328 -6.85937,1.42969 -18.20312,-0.74609 -23.375,-4.48828 -3.80078,-2.75391 -8.648432,-11.57813 -11.632812,-21.17969 -2.46484,-7.94531 -4.88281,-35.12891 -3.28906,-37.00391 0.44922,-0.52343 5.9375,-1.64453 12.191402,-2.48046 14.94141,-2.00782 26.47266,-4.41016 45.15625,-9.41407 8.4375,-2.26172 15.51172,-3.92187 15.72266,-3.69531 0.21094,0.22656 2.79688,7.67578 5.74219,16.55078 8.5,25.58203 11.89062,30.94531 16.77344,26.52735 3.64453,-3.29688 8.62109,-14.64063 12.78125,-29.1211 2.05078,-7.13281 4.20703,-12.96875 4.79687,-12.96875 0.58984,0 4.79297,1.26563 9.33594,2.81641 16.57812,5.64844 44.42969,10.98437 57.57422,11.03125 8.00781,0.0312 8.09375,0.21875 7.16797,15.6875 -1.03907,17.3789 -3.26563,27.21484 -7.73438,34.21094 -6.17187,9.66015 -14.03516,13.78125 -26.01172,13.64062 -8.88281,-0.10547 -12.4414,-0.99609 -20.04297,-5.00391 -6.41797,-3.38281 -20.55859,-16.67187 -20.55859,-19.32031 0,-1.97265 -4.73828,-0.95312 -6.16797,1.32422 -1.6875,2.69141 0.71484,6.99219 8.05078,14.42188 12.17188,12.32812 24.80469,17.65625 41.75,17.61328 11.63281,-0.0312 17.79688,-2.26172 24.76172,-8.96875 9.62109,-9.26953 13.20313,-20.5625 14.21484,-44.80078 l 0.73047,-17.48829 9.91016,-0.64062 c 45.57031,-2.9375 64.22266,-12.10547 70.08203,-34.44922 1.72656,-6.57031 1.80078,-8.67578 0.58594,-15.76562 -0.76953,-4.50391 -2.9961,-11.34375 -4.94531,-15.20704 -4.83985,-9.58203 -21.89844,-27.03906 -34.47657,-35.27734 -12.8164,-8.39844 -12.36328,-7.87891 -9.57031,-10.91797 3.72266,-4.05078 12.39453,-18.03515 15.73438,-25.375 7.69921,-16.91797 11.11328,-34.874998 8.77343,-46.101558 -4.02343,-19.26563 -13.22265,-27.77734 -33.45312,-30.92578 -16.7461,-2.60547 -41.38281,1.79297 -59.19922,10.57031 -3.75,1.84766 -6.89844,3.23047 -6.99609,3.07031 -0.0977,-0.16015 -1.15625,-3.66406 -2.35157,-7.78515 C 229.63633,21.877512 204.91758,-2.2943584 178.91758,1.0493916 m -4.02344,10.7031204 c -2.29297,0.82032 -6.02344,2.63672 -8.28906,4.03907 -9.41406,5.8164 -24.33203,25.69921 -30.45703,40.59375 -5.48438,13.33593 -5.48047,13.3125 -1.80469,15.54687 6.38672,3.875 14.82812,9.8125 18.75,13.18359 l 3.99609,3.4375 -4.75,4.75 -10.26562,-6.87109 c -13.57422,-9.08594 -14.89063,-9.4375 -16.53516,-4.44531 -4.15625,12.58203 -5.84375,37.996088 -3.30859,49.777338 1.95312,9.10156 5.73828,16.67578 10.0039,20.03516 11.40625,8.98047 26.88282,14 45.69141,14.8125 11.80469,0.50781 15.16797,0.23437 22.82031,-1.86719 12.65235,-3.46875 21.8711,-8.46484 29.63672,-16.05859 9.14063,-8.9375 10.92969,-14.83594 10.90625,-35.94141 -0.0156,-13.234371 -1.02734,-21.812498 -3.5039,-29.707028 -0.3086,-0.97656 -3.12891,0.30859 -8.45704,3.85156 -8.21875,5.46485 -12.22656,6.20703 -12.22656,2.26172 0,-2.03125 13.13672,-13.44141 16.9336,-14.70703 1.875,-0.625 -2.59375,-15.71484 -8.28516,-27.97266 -12.5,-26.9375 -33.16016,-41.0390604 -50.85547,-34.71875 M 61.093358,65.572832 c -2.75781,0.54296 -8.15234,2.71093 -11.98828,4.8125 -5.64453,3.10156 -7.65235,5.02734 -10.53125,10.125 -3.11719,5.51562 -3.55469,7.37109 -3.51953,14.94531 0.0391,8.910148 2.39453,17.980468 7.90625,30.449218 2.77734,6.27734 14.66015,24.92187 17.25781,27.08203 0.97656,0.80859 5.69141,-0.23828 15.53516,-3.44922 7.77734,-2.53516 19.67578,-5.80078 26.449212,-7.25391 l 12.3125,-2.64843 -0.32421,-4.51172 c -0.17579,-2.48047 -0.38282,-12.29297 -0.44922,-21.80078 -0.10547,-14.367191 0.30859,-19.015628 2.44531,-27.499998 1.55469,-6.16407 2.16016,-10.62891 1.52344,-11.26172 -2.30078,-2.30078 -21.117192,-7.75 -30.882822,-8.94922 -11.77734,-1.44531 -18.53125,-1.45313 -25.73437,-0.0391 m 218.898442,1.17187 c -6.30078,1.23438 -24.57813,7.37109 -30.04297,10.08594 -4.5,2.23047 -4.46094,1.94531 -1.8711,14.2539 2.10157,9.976568 2.45313,30.996098 0.65235,38.816408 -0.64063,2.77734 -0.96485,5.25 -0.71485,5.49609 0.2461,0.25 4.54297,1.17579 9.54688,2.06641 11.03516,1.95703 30.10547,8.14844 42.27344,13.72266 4.93359,2.25781 9.64062,3.85156 10.46093,3.53515 1.67188,-0.64062 11.89454,-15.84375 15.44532,-22.95703 4.26172,-8.55078 8.51172,-23 9.15234,-31.12109 1.38672,-17.585938 -3.99609,-27.691408 -17.42969,-32.718748 -5.3164,-1.98828 -8.89062,-2.41406 -19.4375,-2.3086 -7.10547,0.0703 -15.22265,0.57813 -18.03515,1.12891 m -104.75391,24.62891 c -6.77344,3.07031 -10.57812,6.46484 -14.06641,12.542968 -6.36328,11.10156 -4.10546,24.44921 5.75782,34.02343 16.03515,15.5586 41.57812,7.72266 46.11718,-14.15234 2.3711,-11.42578 -2.625,-23.04297 -12.68359,-29.499998 -4.78125,-3.06641 -7.27734,-3.83984 -13.57812,-4.20313 -5.2461,-0.30078 -8.94532,0.10938 -11.54688,1.28907 m 68.24609,56.238278 c -1.05468,2.0625 -6.45312,11.26953 -12,20.46094 -14.02734,23.25 -15.55468,27.24218 -21.8164,57.05468 -4.85938,23.14453 -4.89453,21.52735 0.51562,23.17578 26.33203,8.00782 41.26953,11.26954 57.92188,12.64454 9.46484,0.78125 9.50781,0.76953 9.50781,-1.95704 -0.004,-3.44921 -2.88281,-19.92578 -4.64062,-26.55859 -1.19922,-4.52734 -6.70313,-19.39844 -7.55079,-20.39453 -0.1875,-0.22266 -5.13281,2.79297 -10.98046,6.70703 -11.62891,7.77734 -20.73438,12.72266 -23.42969,12.72266 -0.95313,0 -2.27735,-1.02735 -2.94922,-2.28125 -1.08984,-2.03907 -0.10547,-3.01563 9.34766,-9.27344 22.5,-14.90234 46.54296,-34.64453 59.55468,-48.90625 3.35547,-3.67578 5.9336,-7.26563 5.72657,-7.97656 -0.53125,-1.83985 -13.71875,-8.21875 -23.92579,-11.57813 -7.65625,-2.51953 -29.17578,-7.58594 -32.22265,-7.58594 -0.62891,0 -2.00391,1.6875 -3.0586,3.7461 M 97.804298,151.8345 c -17.09375,4.02735 -29.96875,8.28125 -29.96875,9.89844 0,2.54688 12.55468,16.40625 26.01172,28.71875 7.566402,6.91797 14.789062,13.72266 16.058592,15.11719 2.22266,2.44531 16.78516,14.77734 28.39062,24.03516 3.08594,2.46484 5.61329,4.89843 5.61329,5.41015 0,0.51172 -1.1211,1.71485 -2.48829,2.67188 -3.07421,2.15625 -3.0625,2.16406 -22.76171,-14.91016 -16.17969,-14.01562 -15.23438,-13.93359 -19.796882,-1.75391 -4.08203,10.89844 -9.78125,37.25782 -8.5,39.33594 0.40234,0.65625 21.375002,-2.25781 33.718752,-4.68359 11.24609,-2.21094 34.33984,-8.84375 36.29688,-10.42578 1.57421,-1.26953 -10.07422,-44.86719 -14.15235,-52.97657 -4.50781,-8.96093 -12.9414,-22.24609 -17.27344,-27.20703 -1.72265,-1.97265 -4.80468,-6.51172 -6.85156,-10.08593 -4.45312,-7.78125 -4.5625,-7.79688 -24.296872,-3.14454 m -50.38282,19.03516 c -11.3125,6.87891 -18.94921,13.51953 -26.85937,23.34375 -8.05859,10.01172 -10.90625,17.53516 -10.83203,28.60938 0.0664,9.41406 3.28125,16.88281 10.28125,23.84765 8.09765,8.0625 23.98828,13.20313 44.48828,14.39063 16.48437,0.95312 18.32031,0.42578 18.32031,-5.28516 0,-8.27344 3.6211,-23.65234 8.73828,-37.11328 l 5.08985,-13.37891 -19.52735,-19.75781 c -10.74218,-10.86719 -19.94922,-19.74609 -20.45703,-19.73437 -0.51172,0.0156 -4.67187,2.30078 -9.24219,5.07812 m 251.515632,10.37116 c -6.33984,6.52735 -14.37891,14.07032 -17.86719,16.76563 -3.48437,2.69531 -6.72265,5.56641 -7.19531,6.38281 -0.46875,0.8125 0.88281,6.85156 3.00781,13.41406 3.55078,10.96875 6.17578,22.51563 8.48828,37.29297 l 0.90235,5.76172 7.48437,0.36328 c 22.27344,1.08203 48.25,-6.23437 57.72266,-16.26172 8.08594,-8.55468 9.8125,-22.91015 4.10937,-34.16796 -6.46875,-12.75782 -19.875,-26.51954 -36.45703,-37.41797 -3.47265,-2.28125 -6.84375,-4.11719 -7.49219,-4.07422 -0.64453,0.043 -6.36328,5.41406 -12.70312,11.9414"
     fill-opacity="1"
     fill-rule="evenodd"
     id="path6" />
</svg>
