<?xml version="1.0" encoding="UTF-8" standalone="no"?>
<svg
   width="591.82153"
   zoomAndPan="magnify"
   viewBox="0 0 443.86615 394.05204"
   height="525.40271"
   preserveAspectRatio="xMidYMid"
   version="1.0"
   id="svg120"
   sodipodi:docname="logo-atoma.svg"
   inkscape:export-filename="../../logo-atoma.svg"
   inkscape:export-xdpi="96"
   inkscape:export-ydpi="96"
   inkscape:version="1.2 (dc2aeda, 2022-05-15)"
   xmlns:inkscape="http://www.inkscape.org/namespaces/inkscape"
   xmlns:sodipodi="http://sodipodi.sourceforge.net/DTD/sodipodi-0.dtd"
   xmlns="http://www.w3.org/2000/svg"
   xmlns:svg="http://www.w3.org/2000/svg">
  <sodipodi:namedview
     id="namedview122"
     pagecolor="#ffffff"
     bordercolor="#000000"
     borderopacity="0.25"
     inkscape:showpageshadow="2"
     inkscape:pageopacity="0.0"
     inkscape:pagecheckerboard="0"
     inkscape:deskcolor="#d1d1d1"
     showgrid="false"
     inkscape:zoom="1.00875"
     inkscape:cx="346.4684"
     inkscape:cy="312.76332"
     inkscape:window-width="1390"
     inkscape:window-height="957"
     inkscape:window-x="0"
     inkscape:window-y="34"
     inkscape:window-maximized="0"
     inkscape:current-layer="svg120" />
  <defs
     id="defs4" />
  <path
     fill="white"
     d="m 225.04125,1.0889089 c -7.98047,1.02344 -19.20703,7.21094 -26.74219,14.7382791 -8.21875,8.20703 -20.04687,26.44141 -25.63671,39.51953 -2.47657,5.79688 -4.67579,10.71094 -4.87891,10.91797 -0.20703,0.20312 -4.14063,-1.21094 -8.74219,-3.14453 -10.27344,-4.31641 -28.51562,-7.97266 -39.64453,-7.94531 -29.222663,0.0703 -45.984373,12.78906 -47.757813,36.23828 -0.81641,10.765622 0.92187,19.769532 6.28906,32.585932 3.75391,8.97266 6.40625,13.46485 16.78516,28.42579 1.71093,2.46484 3.10937,4.89062 3.10937,5.38671 0,0.5 -4.01953,3.34375 -8.92969,6.32422 -18.83593,11.42578 -32.60156,25.20313 -39.14453,39.17578 -2.8125,6.00782 -3.21484,8.2461 -3.21484,17.82032 0,9.78125 0.35938,11.6875 3.39062,17.86718 6.00782,12.25391 17.02344,21.28125 32.26172,26.4336 7.36328,2.48828 26.648443,5.21484 37.078133,5.24219 l 8.18359,0.0195 0.77344,13.54297 c 1.36328,23.79687 6.55859,39.40234 16.14453,48.46484 7.89453,7.46875 14.91797,9.82812 27.58203,9.26953 7.58985,-0.33203 10.91016,-1.10937 16.9336,-3.95312 13.83984,-6.54297 32.01953,-24.625 29.21875,-29.06641 -0.62891,-0.99609 -1.625,-1.96875 -2.21485,-2.16016 -0.58984,-0.1875 -4.95703,3.33594 -9.70312,7.82813 -9.79688,9.26953 -21.95313,16.51562 -30.8125,18.36328 -6.85938,1.42969 -18.20313,-0.74609 -23.3711,-4.48828 -3.80468,-2.75391 -8.65234,-11.57813 -11.63281,-21.17969 -2.46875,-7.94531 -4.88672,-35.12891 -3.28906,-37.00391 0.44531,-0.52343 5.93359,-1.64453 12.1914,-2.48046 14.94141,-2.00782 26.47266,-4.41016 45.15625,-9.41407 8.4375,-2.26172 15.51172,-3.92187 15.72266,-3.69531 0.21094,0.22656 2.79297,7.67578 5.74219,16.55078 8.49609,25.58203 11.88672,30.94531 16.76953,26.52735 3.64453,-3.29688 8.625,-14.64063 12.78516,-29.1211 2.04687,-7.13281 4.20703,-12.96875 4.79687,-12.96875 0.58984,0 4.78906,1.26563 9.33203,2.81641 16.57813,5.64844 44.42969,10.98437 57.57813,11.03125 8.00781,0.0312 8.09375,0.21875 7.16406,15.6875 -1.03906,17.3789 -3.26172,27.21484 -7.73438,34.21094 -6.17187,9.66015 -14.03515,13.78125 -26.01171,13.64062 -8.87891,-0.10547 -12.44141,-0.99609 -20.04297,-5.00391 -6.41797,-3.38281 -20.55469,-16.67187 -20.55469,-19.32031 0,-1.97265 -4.74219,-0.95312 -6.16797,1.32422 -1.6875,2.69141 0.71094,6.99219 8.04688,14.42188 12.17578,12.32812 24.80468,17.65625 41.7539,17.61328 11.63281,-0.0312 17.79688,-2.26172 24.75781,-8.96875 9.6211,-9.26953 13.20704,-20.5625 14.21875,-44.80078 l 0.73047,-17.48829 9.91016,-0.64062 c 45.57031,-2.9375 64.21875,-12.10547 70.08203,-34.44922 1.72266,-6.57031 1.80078,-8.67578 0.58203,-15.76562 -0.76953,-4.50391 -2.99609,-11.34375 -4.94531,-15.20704 -4.83594,-9.58203 -21.89453,-27.03906 -34.47656,-35.27734 -12.81641,-8.39844 -12.35938,-7.87891 -9.57032,-10.91797 3.72657,-4.05078 12.39844,-18.03515 15.73438,-25.375 7.69922,-16.91797 11.11719,-34.875002 8.77344,-46.101562 -4.01953,-19.26563 -13.22266,-27.77734 -33.45313,-30.92578 -16.74609,-2.60547 -41.38281,1.79297 -59.19531,10.57031 -3.75,1.84766 -6.89844,3.23047 -7,3.07031 -0.0977,-0.16015 -1.15234,-3.66406 -2.34766,-7.78515 C 275.76391,21.916998 251.04125,-2.2548711 225.04125,1.0888789 m -4.02344,10.7070591 c -2.29296,0.81641 -6.02343,2.63281 -8.28515,4.03516 -9.41406,5.8164 -24.33203,25.69921 -30.46094,40.59375 -5.48437,13.33593 -5.48047,13.3125 -1.80469,15.54687 6.38672,3.875 14.82813,9.8125 18.75,13.18359 l 3.9961,3.4375 -4.75,4.75 -10.26563,-6.87109 c -13.57422,-9.08594 -14.88672,-9.4375 -16.53515,-4.44531 -4.15235,12.58203 -5.84375,37.996092 -3.3086,49.777342 1.95703,9.10156 5.73828,16.67578 10.00391,20.03516 11.40625,8.98047 26.88672,14 45.6914,14.8125 11.8086,0.50781 15.16797,0.23437 22.82422,-1.86328 12.65235,-3.47266 21.8711,-8.46875 29.63282,-16.0625 9.14062,-8.9375 10.92968,-14.83594 10.90625,-35.94141 -0.0117,-13.234372 -1.02344,-21.812502 -3.50391,-29.707032 -0.30859,-0.97656 -3.125,0.30859 -8.45703,3.85156 -8.21875,5.46485 -12.22656,6.20703 -12.22656,2.26172 0,-2.03125 13.13671,-13.44141 16.9375,-14.70703 1.875,-0.625 -2.59375,-15.71484 -8.28516,-27.97266 -12.50391,-26.9375 -33.16406,-41.0390591 -50.85938,-34.71875 m -113.80078,53.82032 c -2.75781,0.54296 -8.152343,2.71093 -11.988283,4.8125 -5.64453,3.10156 -7.64844,5.02734 -10.53125,10.125 -3.11328,5.51562 -3.55078,7.37109 -3.51953,14.94531 0.0391,8.910152 2.39453,17.980472 7.91016,30.449222 2.77734,6.27734 14.656253,24.92187 17.257813,27.08203 0.97656,0.80859 5.69141,-0.23828 15.53516,-3.44922 7.77343,-2.53516 19.67578,-5.80078 26.44531,-7.25391 l 12.3164,-2.64843 -0.32421,-4.51172 c -0.17969,-2.48047 -0.38282,-12.29297 -0.45313,-21.80078 -0.10547,-14.367192 0.30859,-19.015632 2.44922,-27.500002 1.55078,-6.16407 2.15625,-10.625 1.51953,-11.26172 -2.29687,-2.30078 -21.11328,-7.75 -30.88281,-8.94922 -11.77344,-1.44531 -18.52735,-1.45313 -25.73438,-0.0391 m 218.89844,1.17187 c -6.30078,1.23438 -24.57422,7.37109 -30.03906,10.08594 -4.5,2.23047 -4.46485,1.94531 -1.8711,14.2539 2.10157,9.976572 2.45313,30.996102 0.64844,38.816412 -0.64062,2.77734 -0.96094,5.25 -0.71484,5.49609 0.24609,0.25 4.54297,1.17579 9.54687,2.06641 11.03907,1.95703 30.10547,8.14844 42.27344,13.72266 4.93359,2.25781 9.64063,3.85156 10.46484,3.53515 1.66797,-0.64062 11.89454,-15.84375 15.44141,-22.95703 4.26172,-8.55078 8.51172,-23 9.15234,-31.12109 1.38672,-17.585942 -3.99609,-27.691412 -17.42968,-32.718752 -5.3125,-1.98828 -8.88672,-2.41406 -19.4336,-2.3086 -7.10937,0.0703 -15.22656,0.57813 -18.03906,1.12891 m -104.75,24.62891 c -6.77344,3.07031 -10.58203,6.46484 -14.06641,12.542972 -6.36718,11.10156 -4.10937,24.44921 5.75391,34.02343 16.03516,15.5586 41.57813,7.72266 46.12109,-14.15234 2.3711,-11.42578 -2.6289,-23.04297 -12.6875,-29.500002 -4.77734,-3.06641 -7.27734,-3.83984 -13.57812,-4.20313 -5.24609,-0.30078 -8.94531,0.10938 -11.54297,1.28907 m 68.24609,56.238282 c -1.05468,2.0625 -6.45312,11.26953 -12,20.46094 -14.02734,23.25 -15.55468,27.24218 -21.8164,57.05468 -4.86328,23.14453 -4.89844,21.52735 0.51562,23.17578 26.32813,8.00782 41.26953,11.26954 57.91797,12.64454 9.46485,0.78125 9.50781,0.76953 9.50781,-1.95704 -0.004,-3.44921 -2.8789,-19.92578 -4.64062,-26.55859 -1.19922,-4.52734 -6.70313,-19.39844 -7.54688,-20.39453 -0.1914,-0.22266 -5.13281,2.79297 -10.98437,6.70703 -11.625,7.77734 -20.73438,12.72266 -23.42969,12.72266 -0.94922,0 -2.27344,-1.02735 -2.94531,-2.28125 -1.09375,-2.03907 -0.10938,-3.01563 9.34375,-9.27344 22.5,-14.90234 46.54297,-34.64453 59.55859,-48.90625 3.35547,-3.67578 5.92969,-7.26563 5.72266,-7.97656 -0.53125,-1.83985 -13.71875,-8.21875 -23.92578,-11.57813 -7.65235,-2.51953 -29.17578,-7.58594 -32.22266,-7.58594 -0.6289,0 -2.0039,1.6875 -3.05469,3.7461 m -145.68359,4.22265 c -17.08984,4.02735 -29.96875,8.28125 -29.96875,9.89844 0,2.54688 12.55859,16.40625 26.01172,28.71875 7.56641,6.91797 14.79297,13.72266 16.05859,15.11719 2.22657,2.44531 16.78907,14.77734 28.39063,24.03516 3.08984,2.46484 5.61328,4.89843 5.61328,5.41015 0,0.51172 -1.11719,1.71485 -2.48828,2.67188 -3.07422,2.15625 -3.0586,2.16406 -22.76172,-14.91016 -16.17578,-14.01562 -15.23047,-13.93359 -19.79688,-1.75391 -4.08203,10.89844 -9.77734,37.25782 -8.5,39.33594 0.40235,0.65625 21.375,-2.25781 33.71875,-4.68359 11.2461,-2.21094 34.33985,-8.84375 36.29688,-10.42578 1.57422,-1.26953 -10.07422,-44.86328 -14.15234,-52.97657 -4.50391,-8.96093 -12.9375,-22.24609 -17.27344,-27.20703 -1.72266,-1.97265 -4.80469,-6.51172 -6.85156,-10.08593 -4.44922,-7.78125 -4.5586,-7.79688 -24.29688,-3.14454 m -50.378913,19.03907 c -11.3125,6.875 -18.95312,13.51562 -26.85937,23.33984 -8.0625,10.01172 -10.90625,17.53516 -10.83203,28.60938 0.0625,9.41406 3.28125,16.88281 10.27734,23.84765 8.10156,8.0625 23.98828,13.20313 44.488283,14.39063 16.48438,0.95312 18.32032,0.42578 18.32032,-5.28516 0,-8.27344 3.62109,-23.65234 8.74218,-37.11328 l 5.08985,-13.37891 -19.53125,-19.75781 c -10.74219,-10.86719 -19.94532,-19.74609 -20.45703,-19.73437 -0.51172,0.0156 -4.667973,2.30078 -9.238293,5.08203 m 251.511723,10.36718 c -6.33984,6.52735 -14.3789,14.07032 -17.86328,16.76563 -3.48828,2.69531 -6.72656,5.56641 -7.19531,6.38281 -0.47266,0.8125 0.88281,6.85156 3.00391,13.41406 3.55078,10.96875 6.17968,22.51563 8.48828,37.29297 l 0.90234,5.76172 7.48438,0.36328 c 22.27734,1.08203 48.25,-6.23437 57.72656,-16.26172 8.08203,-8.55468 9.80859,-22.91015 4.10547,-34.16796 -6.46485,-12.75782 -19.875,-26.51954 -36.45313,-37.41797 -3.47265,-2.28125 -6.84375,-4.11719 -7.49219,-4.07422 -0.64843,0.043 -6.36718,5.41406 -12.70703,11.9414"
     fill-opacity="1"
     fill-rule="evenodd"
     id="path10" />
  <g
     fill="white"
     fill-opacity="1"
     id="g24"
     transform="translate(-78.841563,-103.95406)">
    <g
       transform="translate(75.835779,497.34667)"
       id="g16">
      <g
         id="g14">
        <path
           d="M 3.78125,0 V -30.65625 H 9.75 V 0 Z m 5.125,-12.765625 V -17.8125 l 12.265625,-0.03125 v 5.03125 z m 0,-12.859375 v -5.03125 H 21.75 v 5.03125 z m 0,0"
           id="path12" />
      </g>
    </g>
    <g
       transform="translate(99.355778,497.34667)"
       id="g22">
      <g
         id="g20">
        <path
           d="M 16.421875,0.796875 C 13.566406,0.796875 11.160156,0.25 9.203125,-0.84375 7.242188,-1.9375 5.75,-3.46875 4.71875,-5.4375 3.695312,-7.414062 3.1875,-9.734375 3.1875,-12.390625 V -30.65625 h 5.96875 v 18.609375 c 0,1.449219 0.28125,2.730469 0.84375,3.84375 0.5625,1.105469 1.378906,1.960937 2.453125,2.5625 1.070313,0.59375 2.394531,0.890625 3.96875,0.890625 1.539063,0 2.847656,-0.296875 3.921875,-0.890625 1.082031,-0.601563 1.894531,-1.453125 2.4375,-2.546875 0.550781,-1.09375 0.828125,-2.378906 0.828125,-3.859375 V -30.65625 H 29.5625 v 18.265625 c 0,2.65625 -0.496094,4.976563 -1.484375,6.953125 -0.992187,1.96875 -2.46875,3.5 -4.4375,4.59375 -1.960937,1.09375 -4.367187,1.640625 -7.21875,1.640625 z m 0,0"
           id="path18" />
      </g>
    </g>
  </g>
  <g
     fill="white"
     fill-opacity="1"
     id="g38"
     transform="translate(-78.841563,-103.95406)">
    <g
       transform="translate(132.11577,497.34667)"
       id="g30">
      <g
         id="g28">
        <path
           d="M 3.78125,0 V -30.65625 H 13.5625 L 26.453125,-4.953125 H 27.84375 L 27,-4.203125 V -30.65625 h 5.640625 V 0 H 22.8125 L 9.90625,-25.703125 H 8.484375 l 0.84375,-0.75 V 0 Z m 0,0"
           id="path26" />
      </g>
    </g>
    <g
       transform="translate(168.52977,497.34667)"
       id="g36">
      <g
         id="g34">
        <path
           d="M 8.90625,0.171875 V -5.375 H 15.25 c 1.59375,0 3.007812,-0.242188 4.25,-0.734375 1.25,-0.488281 2.304688,-1.179687 3.171875,-2.078125 0.875,-0.894531 1.539063,-1.953125 2,-3.171875 0.46875,-1.21875 0.703125,-2.566406 0.703125,-4.046875 0,-1.539062 -0.234375,-2.921875 -0.703125,-4.140625 -0.460937,-1.21875 -1.125,-2.257813 -2,-3.125 -0.867187,-0.875 -1.921875,-1.535156 -3.171875,-1.984375 -1.242188,-0.445312 -2.65625,-0.671875 -4.25,-0.671875 H 8.90625 V -30.875 H 14.875 c 2.769531,0 5.1875,0.40625 7.25,1.21875 2.070312,0.8125 3.796875,1.929688 5.171875,3.34375 1.375,1.417969 2.40625,3.027344 3.09375,4.828125 0.6875,1.804687 1.03125,3.671875 1.03125,5.609375 v 0.921875 c 0,1.84375 -0.34375,3.667969 -1.03125,5.46875 -0.6875,1.792969 -1.71875,3.417969 -3.09375,4.875 C 25.921875,-3.160156 24.195312,-2 22.125,-1.125 c -2.0625,0.867188 -4.480469,1.296875 -7.25,1.296875 z m -5.125,0 V -30.875 H 9.75 V 0.171875 Z m 0,0"
           id="path32" />
      </g>
    </g>
  </g>
  <g
     fill="white"
     fill-opacity="1"
     id="g46"
     transform="translate(-78.841563,-103.95406)">
    <g
       transform="translate(200.32377,497.34667)"
       id="g44">
      <g
         id="g42">
        <path
           d="m 0.75,0 10.46875,-30.65625 h 9.734375 L 31.703125,0 h -6.125 l -9.109375,-26.59375 2.140625,0.9375 h -5.25 l 2.1875,-0.9375 L 6.71875,0 Z M 8.0625,-8.140625 9.953125,-13.1875 h 12.4375 l 1.84375,5.046875 z m 0,0"
           id="path40" />
      </g>
    </g>
  </g>
  <g
     fill="white"
     fill-opacity="1"
     id="g54"
     transform="translate(-78.841563,-103.95406)">
    <g
       transform="translate(231.61377,497.34667)"
       id="g52">
      <g
         id="g50">
        <path
           d="m 17.59375,0.796875 c -2.773438,0 -5.152344,-0.492187 -7.140625,-1.46875 -1.992187,-0.976563 -3.609375,-2.25 -4.859375,-3.8125 -1.242188,-1.570313 -2.15625,-3.28125 -2.75,-5.125 -0.585938,-1.851563 -0.875,-3.632813 -0.875,-5.34375 V -15.875 c 0,-1.90625 0.300781,-3.78125 0.90625,-5.625 0.601562,-1.851562 1.535156,-3.535156 2.796875,-5.046875 1.257813,-1.507813 2.859375,-2.71875 4.796875,-3.625 1.945312,-0.914063 4.253906,-1.375 6.921875,-1.375 2.769531,0 5.179687,0.5 7.234375,1.5 2.0625,0.992187 3.707031,2.390625 4.9375,4.203125 1.238281,1.804688 1.984375,3.90625 2.234375,6.3125 H 25.78125 c -0.21875,-1.394531 -0.714844,-2.578125 -1.484375,-3.546875 -0.773437,-0.96875 -1.746094,-1.695313 -2.921875,-2.1875 C 20.195312,-25.753906 18.867188,-26 17.390625,-26 c -1.511719,0 -2.855469,0.261719 -4.03125,0.78125 -1.179687,0.523438 -2.164063,1.257812 -2.953125,2.203125 -0.78125,0.949219 -1.375,2.070313 -1.78125,3.359375 -0.40625,1.292969 -0.609375,2.71875 -0.609375,4.28125 0,1.511719 0.203125,2.914062 0.609375,4.203125 0.40625,1.292969 1.015625,2.421875 1.828125,3.390625 0.8125,0.960938 1.8125,1.703125 3,2.234375 1.195313,0.53125 2.578125,0.796875 4.140625,0.796875 2.300781,0 4.238281,-0.5625 5.8125,-1.6875 1.582031,-1.132812 2.546875,-2.726562 2.890625,-4.78125 h 6 c -0.28125,2.1875 -1.027344,4.195312 -2.234375,6.015625 -1.199219,1.8125 -2.851562,3.265625 -4.953125,4.359375 C 23.015625,0.25 20.507812,0.796875 17.59375,0.796875 Z m 0,0"
           id="path48" />
      </g>
    </g>
  </g>
  <g
     fill="white"
     fill-opacity="1"
     id="g62"
     transform="translate(-78.841563,-103.95406)">
    <g
       transform="translate(265.17176,497.34667)"
       id="g60">
      <g
         id="g58">
        <path
           d="m 3.859375,0 v -30.65625 h 5.96875 V 0 Z m 0,0"
           id="path56" />
      </g>
    </g>
  </g>
  <g
     fill="white"
     fill-opacity="1"
     id="g80"
     transform="translate(-78.841563,-103.95406)">
    <g
       transform="translate(278.86376,497.34667)"
       id="g68">
      <g
         id="g66">
        <path
           d="m 18.1875,0.796875 c -2.773438,0 -5.171875,-0.492187 -7.203125,-1.46875 C 8.953125,-1.648438 7.269531,-2.929688 5.9375,-4.515625 4.613281,-6.097656 3.617188,-7.804688 2.953125,-9.640625 2.296875,-11.472656 1.96875,-13.242188 1.96875,-14.953125 V -15.875 c 0,-1.875 0.332031,-3.742188 1,-5.609375 0.675781,-1.863281 1.691406,-3.550781 3.046875,-5.0625 1.363281,-1.507813 3.050781,-2.71875 5.0625,-3.625 2.019531,-0.914063 4.390625,-1.375 7.109375,-1.375 2.6875,0 5.035156,0.460937 7.046875,1.375 2.019531,0.90625 3.707031,2.117187 5.0625,3.625 1.363281,1.511719 2.378906,3.199219 3.046875,5.0625 0.675781,1.867187 1.015625,3.734375 1.015625,5.609375 v 0.921875 c 0,1.710937 -0.335937,3.480469 -1,5.3125 -0.65625,1.835937 -1.652344,3.542969 -2.984375,5.125 -1.324219,1.585937 -3,2.867187 -5.03125,3.84375 -2.03125,0.976563 -4.417969,1.46875 -7.15625,1.46875 z m 0,-5.546875 c 1.5625,0 2.96875,-0.273438 4.21875,-0.828125 1.25,-0.5625 2.3125,-1.335937 3.1875,-2.328125 0.882812,-1 1.554688,-2.132812 2.015625,-3.40625 0.46875,-1.28125 0.703125,-2.632812 0.703125,-4.0625 0,-1.539062 -0.234375,-2.953125 -0.703125,-4.234375 -0.460937,-1.289063 -1.132813,-2.410156 -2.015625,-3.359375 -0.875,-0.957031 -1.945312,-1.703125 -3.203125,-2.234375 C 21.128906,-25.734375 19.726562,-26 18.1875,-26 c -1.574219,0 -2.992188,0.265625 -4.25,0.796875 -1.261719,0.53125 -2.335938,1.277344 -3.21875,2.234375 -0.875,0.949219 -1.546875,2.070312 -2.015625,3.359375 -0.460937,1.28125 -0.6875,2.695313 -0.6875,4.234375 0,1.429688 0.226563,2.78125 0.6875,4.0625 0.46875,1.273438 1.140625,2.40625 2.015625,3.40625 0.882812,0.992188 1.957031,1.765625 3.21875,2.328125 1.257812,0.554687 2.675781,0.828125 4.25,0.828125 z M 14.953125,-33.015625 20.25,-40.3125 h 6.375 l -6.171875,7.296875 z m 0,0"
           id="path64" />
      </g>
    </g>
    <g
       transform="translate(315.19375,497.34667)"
       id="g74">
      <g
         id="g72">
        <path
           d="M 3.78125,0 V -30.65625 H 13.5625 L 26.453125,-4.953125 H 27.84375 L 27,-4.203125 V -30.65625 h 5.640625 V 0 H 22.8125 L 9.90625,-25.703125 H 8.484375 l 0.84375,-0.75 V 0 Z m 0,0"
           id="path70" />
      </g>
    </g>
    <g
       transform="translate(351.60775,497.34667)"
       id="g78">
      <g
         id="g76" />
    </g>
  </g>
  <g
     fill="white"
     fill-opacity="1"
     id="g88"
     transform="translate(-78.841563,-103.95406)">
    <g
       transform="translate(360.67976,497.34667)"
       id="g86">
      <g
         id="g84">
        <path
           d="m 0.75,0 10.46875,-30.65625 h 9.734375 L 31.703125,0 h -6.125 l -9.109375,-26.59375 2.140625,0.9375 h -5.25 l 2.1875,-0.9375 L 6.71875,0 Z M 8.0625,-8.140625 9.953125,-13.1875 h 12.4375 l 1.84375,5.046875 z m 4.796875,-24.875 5.296875,-7.296875 h 6.375 l -6.171875,7.296875 z m 0,0"
           id="path82" />
      </g>
    </g>
  </g>
  <g
     fill="white"
     fill-opacity="1"
     id="g96"
     transform="translate(-78.841563,-103.95406)">
    <g
       transform="translate(390.54174,497.34667)"
       id="g94">
      <g
         id="g92">
        <path
           d="m 9.828125,0 v -26.25 h 5.96875 V 0 Z M 0.96875,-25.40625 v -5.25 h 23.6875 v 5.25 z m 0,0"
           id="path90" />
      </g>
    </g>
  </g>
  <g
     fill="white"
     fill-opacity="1"
     id="g110"
     transform="translate(-78.841563,-103.95406)">
    <g
       transform="translate(415.27975,497.34667)"
       id="g102">
      <g
         id="g100">
        <path
           d="m 18.1875,0.796875 c -2.773438,0 -5.171875,-0.492187 -7.203125,-1.46875 C 8.953125,-1.648438 7.269531,-2.929688 5.9375,-4.515625 4.613281,-6.097656 3.617188,-7.804688 2.953125,-9.640625 2.296875,-11.472656 1.96875,-13.242188 1.96875,-14.953125 V -15.875 c 0,-1.875 0.332031,-3.742188 1,-5.609375 0.675781,-1.863281 1.691406,-3.550781 3.046875,-5.0625 1.363281,-1.507813 3.050781,-2.71875 5.0625,-3.625 2.019531,-0.914063 4.390625,-1.375 7.109375,-1.375 2.6875,0 5.035156,0.460937 7.046875,1.375 2.019531,0.90625 3.707031,2.117187 5.0625,3.625 1.363281,1.511719 2.378906,3.199219 3.046875,5.0625 0.675781,1.867187 1.015625,3.734375 1.015625,5.609375 v 0.921875 c 0,1.710937 -0.335937,3.480469 -1,5.3125 -0.65625,1.835937 -1.652344,3.542969 -2.984375,5.125 -1.324219,1.585937 -3,2.867187 -5.03125,3.84375 -2.03125,0.976563 -4.417969,1.46875 -7.15625,1.46875 z m 0,-5.546875 c 1.5625,0 2.96875,-0.273438 4.21875,-0.828125 1.25,-0.5625 2.3125,-1.335937 3.1875,-2.328125 0.882812,-1 1.554688,-2.132812 2.015625,-3.40625 0.46875,-1.28125 0.703125,-2.632812 0.703125,-4.0625 0,-1.539062 -0.234375,-2.953125 -0.703125,-4.234375 -0.460937,-1.289063 -1.132813,-2.410156 -2.015625,-3.359375 -0.875,-0.957031 -1.945312,-1.703125 -3.203125,-2.234375 C 21.128906,-25.734375 19.726562,-26 18.1875,-26 c -1.574219,0 -2.992188,0.265625 -4.25,0.796875 -1.261719,0.53125 -2.335938,1.277344 -3.21875,2.234375 -0.875,0.949219 -1.546875,2.070312 -2.015625,3.359375 -0.460937,1.28125 -0.6875,2.695313 -0.6875,4.234375 0,1.429688 0.226563,2.78125 0.6875,4.0625 0.46875,1.273438 1.140625,2.40625 2.015625,3.40625 0.882812,0.992188 1.957031,1.765625 3.21875,2.328125 1.257812,0.554687 2.675781,0.828125 4.25,0.828125 z m 0,0"
           id="path98" />
      </g>
    </g>
    <g
       transform="translate(451.60975,497.34667)"
       id="g108">
      <g
         id="g106">
        <path
           d="m 3.78125,0 v -30.65625 h 8.140625 l 7.6875,18.3125 H 20.375 l 7.640625,-18.3125 H 36.28125 V 0 h -5.921875 v -26.171875 l 0.765625,0.09375 -8.28125,19.8125 h -6.078125 l -8.328125,-19.8125 0.796875,-0.09375 V 0 Z m 0,0"
           id="path104" />
      </g>
    </g>
  </g>
  <g
     fill="white"
     fill-opacity="1"
     id="g118"
     transform="translate(-78.841563,-103.95406)">
    <g
       transform="translate(491.67776,497.34667)"
       id="g116">
      <g
         id="g114">
        <path
           d="m 0.75,0 10.46875,-30.65625 h 9.734375 L 31.703125,0 h -6.125 l -9.109375,-26.59375 2.140625,0.9375 h -5.25 l 2.1875,-0.9375 L 6.71875,0 Z M 8.0625,-8.140625 9.953125,-13.1875 h 12.4375 l 1.84375,5.046875 z m 0,0"
           id="path112" />
      </g>
    </g>
  </g>
</svg>
